<?xml version="1.0" encoding="UTF-8"?>
<svg id="Layer_2" data-name="Layer 2" xmlns="http://www.w3.org/2000/svg" viewBox="0 0 11.99 11.17">
  <defs>
    <style>
      .cls-1 {
        fill: none;
      }

      .cls-2 {
        fill: #f4f5c6;
      }

      .cls-3 {
        fill: #f37f81;
      }
    </style>
  </defs>
  <g id="Layer_1-2" data-name="Layer 1">
    <path class="cls-3" d="m9.06,6.45c-.37.82-1,1.62-1.48,1.62-.13,0-.18-.11-.18-.3s.06-.44.17-.72c.2-.48.76-1.38.98-1.89.31-.6.22-1.12-.01-1.36-.16-.18-.3-.16-.48.08-.4.57-1.07,1.77-1.42,2.61,0,0,0,0,0,0-.43.8-1.06,1.58-1.46,1.58-.16,0-.24-.16-.24-.41,0-.44.41-1.24.79-1.85.38-.67.6-1.05.6-1.32,0-.46-.32-.88-.67-.88-.43,0-1.01.4-1.52.88.01-.07.01-.16.01-.24,0-.19-.05-.38-.16-.56-.12-.22-.3-.23-.46,0-.74,1.12-1.67,2.79-1.9,3.47-.07.24-.11.44-.11.62,0,.29.1.49.26.66.19.19.35.12.43-.07.49-1.08,1.03-2.25,1.69-2.95.66-.74,1.25-1.08,1.35-1.08.08,0-.11.31-.36.71-.47.74-1.02,1.85-1.02,2.5s.35,1.03,1.15,1.03c.47,0,1.01-.28,1.42-.65.12.37.44.61.99.61.71,0,1.54-.5,1.9-1.26.16-.31.17-.61.06-.82-.11-.22-.26-.24-.36-.02Z"/>
    <path class="cls-3" d="m9,2.43c-.28,0-.53.31-.53.65,0,.37.32.73.71.73.3,0,.48-.28.48-.6,0-.35-.32-.78-.66-.78Z"/>
    <path class="cls-1" d="m9.06,6.45c-.37.82-1,1.62-1.48,1.62-.13,0-.18-.11-.18-.3s.06-.44.17-.72c.2-.48.76-1.38.98-1.89.31-.6.22-1.12-.01-1.36-.16-.18-.3-.16-.48.08-.4.57-1.07,1.77-1.42,2.61,0,0,0,0,0,0-.43.8-1.06,1.58-1.46,1.58-.16,0-.24-.16-.24-.41,0-.44.41-1.24.79-1.85.38-.67.6-1.05.6-1.32,0-.46-.32-.88-.67-.88-.43,0-1.01.4-1.52.88.01-.07.01-.16.01-.24,0-.19-.05-.38-.16-.56-.12-.22-.3-.23-.46,0-.74,1.12-1.67,2.79-1.9,3.47-.07.24-.11.44-.11.62,0,.29.1.49.26.66.19.19.35.12.43-.07.49-1.08,1.03-2.25,1.69-2.95.66-.74,1.25-1.08,1.35-1.08.08,0-.11.31-.36.71-.47.74-1.02,1.85-1.02,2.5s.35,1.03,1.15,1.03c.46,0,.98-.26,1.39-.62.01-.01.03,0,.04.01.13.35.45.58.98.58.71,0,1.54-.5,1.9-1.26.16-.31.17-.61.06-.82-.11-.22-.26-.24-.36-.02Z"/>
    <path class="cls-1" d="m9,2.43c-.28,0-.53.31-.53.65,0,.37.32.73.71.73.3,0,.48-.28.48-.6,0-.35-.32-.78-.66-.78Z"/>
    <path class="cls-2" d="m11.38,6.89c.64-.67.82-1.68.35-2.48-.77-1.34-2.08-2.6-3.78-3.47-.75-.39-1.52-.67-2.28-.85-1.52-.36-3.08.46-3.76,1.86-.41.84-.86,1.62-1.34,2.33-.91,1.36-.74,3.17.47,4.28.63.58,1.36,1.09,2.2,1.52,1.48.76,3.02,1.12,4.41,1.1.9-.01,1.65-.62,1.97-1.46,0,0,0,0,0-.01.43-1.12,1.05-2.08,1.75-2.81Zm-2.02.4c-.36.75-1.19,1.26-1.9,1.26-.53,0-.85-.22-.98-.58,0-.02-.03-.02-.04-.01-.41.36-.93.62-1.39.62-.8,0-1.15-.41-1.15-1.03s.55-1.75,1.02-2.5c.25-.4.44-.71.36-.71-.11,0-.7.34-1.35,1.08-.66.7-1.2,1.87-1.69,2.95-.08.19-.24.26-.43.07-.17-.17-.26-.37-.26-.66,0-.18.04-.38.11-.62.23-.67,1.15-2.35,1.9-3.47.16-.23.34-.22.46,0,.11.18.16.37.16.56,0,.08,0,.17-.01.24.52-.48,1.09-.88,1.52-.88.35,0,.67.42.67.88,0,.26-.22.65-.6,1.32-.38.61-.79,1.4-.79,1.85,0,.25.08.41.24.41.41,0,1.03-.78,1.46-1.58,0,0,0,0,0,0,.34-.85,1.01-2.05,1.42-2.61.18-.24.32-.26.48-.08.23.24.32.76.01,1.36-.23.52-.78,1.42-.98,1.89-.11.28-.17.53-.17.72s.05.3.18.3c.48,0,1.1-.8,1.48-1.62.1-.22.25-.19.36.02.11.2.1.5-.06.82Zm-.18-3.48c-.38,0-.71-.36-.71-.73,0-.34.25-.65.53-.65.34,0,.66.43.66.78,0,.32-.18.6-.48.6Z"/>
  </g>
</svg>