<?xml version="1.0" encoding="UTF-8"?>
<svg id="Layer_2" data-name="Layer 2" xmlns="http://www.w3.org/2000/svg" viewBox="0 0 11.99 11.17">
  <defs>
    <style>
      .cls-1 {
        fill: #f2d491;
      }
    </style>
  </defs>
  <g id="Layer_1-2" data-name="Layer 1">
    <path class="cls-1" d="m11.73,4.41c-.77-1.34-2.08-2.6-3.78-3.47-.75-.39-1.52-.67-2.28-.85-1.52-.36-3.08.46-3.76,1.86-.41.84-.86,1.62-1.34,2.33-.91,1.36-.74,3.17.47,4.28.63.58,1.36,1.09,2.2,1.52,1.48.76,3.02,1.12,4.41,1.1.9-.01,1.65-.62,1.97-1.46,0,0,0,0,0-.01.43-1.12,1.05-2.08,1.75-2.81.64-.67.82-1.68.35-2.48Zm-2.38,2.88c-.36.75-1.19,1.26-1.9,1.26-.14,0-.26-.02-.36-.04-.04,0-.06-.03-.1-.04-.07-.02-.13-.05-.19-.08-.03-.02-.06-.05-.08-.07-.04-.04-.09-.07-.12-.11-.02-.03-.04-.07-.06-.1-.02-.04-.05-.08-.07-.12,0-.02-.03-.02-.04-.01-.05.05-.11.09-.17.13-.05.04-.09.08-.14.11-.07.05-.14.08-.21.12-.05.03-.1.06-.14.08-.08.04-.16.06-.24.09-.04.01-.09.04-.13.05-.12.03-.24.05-.36.05-.8,0-1.15-.41-1.15-1.03s.55-1.75,1.02-2.5c.25-.4.44-.71.36-.71-.11,0-.7.34-1.35,1.08-.66.7-1.2,1.87-1.69,2.95-.08.19-.24.26-.43.07-.17-.17-.26-.37-.26-.66,0-.18.04-.38.11-.62.23-.67,1.15-2.35,1.9-3.47.16-.23.34-.22.46,0,.11.18.16.37.16.56,0,.08,0,.17-.01.24.52-.48,1.09-.88,1.52-.88.35,0,.67.42.67.88,0,.26-.22.65-.6,1.32-.38.61-.79,1.4-.79,1.85,0,.25.08.41.24.41.41,0,1.03-.78,1.46-1.58,0,0,0,0,0,0,.34-.85,1.01-2.05,1.42-2.61.18-.24.32-.26.48-.08.23.24.32.76.01,1.36-.23.52-.78,1.42-.98,1.89-.11.28-.17.53-.17.72s.05.3.18.3c.48,0,1.1-.8,1.48-1.62.1-.22.25-.19.36.02.11.2.1.5-.06.82Zm-.18-3.48c-.38,0-.71-.36-.71-.73,0-.34.25-.65.53-.65.34,0,.66.43.66.78,0,.32-.18.6-.48.6Z"/>
  </g>
</svg>